<?xml version="1.0" standalone="no"?><!DOCTYPE svg PUBLIC "-//W3C//DTD SVG 1.1//EN" "http://www.w3.org/Graphics/SVG/1.1/DTD/svg11.dtd"><svg t="1767260426608" class="icon" viewBox="0 0 1024 1024" version="1.1" xmlns="http://www.w3.org/2000/svg" p-id="11423" xmlns:xlink="http://www.w3.org/1999/xlink" width="200" height="200"><path d="M991.232 341.504c-7.68-20.48-30.72-31.232-51.2-24.064-20.48 7.168-31.232 30.208-24.576 51.2 29.696 82.432 33.28 169.984 10.24 254.464-60.416 224.768-285.184 359.424-512 306.176C187.392 875.52 46.08 654.848 92.16 427.008c46.08-228.352 262.144-376.32 492.032-337.408 12.8 2.048 26.112 5.12 38.912 8.704 10.24 2.56 20.992 1.536 30.208-4.096 9.216-5.12 15.872-13.824 18.432-24.576 5.632-21.504-7.168-43.52-28.16-49.152-15.36-4.096-30.72-7.68-46.08-10.24C329.216-35.328 73.216 137.216 14.848 403.456c-56.832 261.12 96.256 519.168 350.208 595.456l15.36 4.608c44.032 11.776 88.064 17.408 132.096 17.408 139.776 0 275.456-57.856 373.248-163.84 128.512-139.264 168.96-336.896 105.472-515.584z" fill="#ffffff" p-id="11424"></path><path d="M583.68 452.096c-21.504-12.288-46.592-19.456-72.704-21.504-84.48-5.632-158.72 50.176-165.376 123.904-3.072 32.768 7.68 64.512 30.208 90.624 26.624 31.232 67.584 50.688 112.128 53.76 4.096 0 7.68 0.512 11.776 0.512 69.632 0 131.072-40.96 148.992-99.84h-0.512c1.024-1.536 1.536-3.072 2.048-4.608L757.248 194.56c16.896 14.336 32.256 31.232 47.616 51.712 8.192 10.752 15.36 22.528 22.016 33.792 9.728 17.92 33.792 32.256 49.152 29.696 16.896-0.512 32.768-8.704 43.008-23.04 11.264-16.896 11.264-39.936 1.024-57.344-9.216-16.384-18.944-31.744-30.208-46.08-30.72-40.96-59.904-77.312-110.592-105.984-8.192-4.608-17.408-7.168-26.624-7.168-38.912-2.048-72.704 25.088-84.48 68.096L583.68 452.096z" fill="#ffffff" p-id="11425"></path></svg>